<?xml version="1.0" encoding="UTF-8" standalone="no"?>
<!-- Generator: Adobe Illustrator 16.0.0, SVG Export Plug-In . SVG Version: 6.00 Build 0)  -->

<svg
   xmlns:i="http://ns.adobe.com/AdobeIllustrator/10.0/"
   xmlns:dc="http://purl.org/dc/elements/1.1/"
   xmlns:cc="http://creativecommons.org/ns#"
   xmlns:rdf="http://www.w3.org/1999/02/22-rdf-syntax-ns#"
   xmlns:svg="http://www.w3.org/2000/svg"
   xmlns="http://www.w3.org/2000/svg"
   xmlns:sodipodi="http://sodipodi.sourceforge.net/DTD/sodipodi-0.dtd"
   xmlns:inkscape="http://www.inkscape.org/namespaces/inkscape"
   version="1.1"
   id="Layer_1"
   x="0px"
   y="0px"
   viewBox="0 0 500 500"
   enable-background="new 0 0 3000 3000"
   xml:space="preserve"
   sodipodi:docname="jaspercompiler.svg"
   width="500"
   height="500"
   inkscape:version="0.92.4 (5da689c313, 2019-01-14)"><metadata
   id="metadata1017"><rdf:RDF><cc:Work
       rdf:about=""><dc:format>image/svg+xml</dc:format><dc:type
         rdf:resource="http://purl.org/dc/dcmitype/StillImage" /><dc:title>tibco-logo</dc:title></cc:Work></rdf:RDF></metadata><defs
   id="defs1015">
	
	
	
	
	
	
	
	
	
	
	
	
	
	
	
	
	
	
	
	
	
</defs><sodipodi:namedview
   pagecolor="#ffffff"
   bordercolor="#666666"
   borderopacity="1"
   objecttolerance="10"
   gridtolerance="10"
   guidetolerance="10"
   inkscape:pageopacity="0"
   inkscape:pageshadow="2"
   inkscape:window-width="1920"
   inkscape:window-height="1015"
   id="namedview1013"
   showgrid="false"
   inkscape:zoom="1.674"
   inkscape:cx="275.51839"
   inkscape:cy="261.20543"
   inkscape:window-x="0"
   inkscape:window-y="36"
   inkscape:window-maximized="1"
   inkscape:current-layer="Layer_1" />
<title
   id="title966">tibco-logo</title>

<g
   i:dimmedPercent="50"
   i:layer="yes"
   i:rgbTrio="#4F008000FFFF"
   id="Layer_1-3"
   transform="matrix(1.2694893,0,0,1.2694893,16.305279,86.808839)"><g
     id="g7"><path
       style="clip-rule:evenodd;fill:#616161;fill-rule:evenodd"
       d="M 0,34.344 0.72,53.46 C 9.396,60.732 18,68.04 26.928,75.78 35.892,83.52 45.792,90 53.856,99.504 c 7.884,9.396 16.992,18 20.52,32.616 3.384,14.651 3.384,32.509 0,54.54 l -10.98,18.756 -0.36,21.961 20.556,8.855 c 5.796,-2.16 12.6,-3.205 20.556,-2.844 7.92,0.215 19.62,1.332 26.892,4.607 7.2,3.203 12.24,10.297 15.948,14.904 3.564,4.607 5.508,8.604 5.688,12.383 l 23.724,10.262 68.004,-68.689 -0.721,-23.4 v 0.002 c -3.312,-1.586 -6.336,-3.24 -9.216,-4.969 -2.952,-1.801 -5.616,-3.637 -8.136,-5.652 24.3,1.801 44.496,2.52 61.992,1.764 17.352,-0.9 29.592,-3.275 41.436,-6.012 11.7,-2.699 22.393,-7.309 28.332,-9.936 5.796,-2.701 7.813,-4.176 6.732,-6.373 -1.225,-2.412 -3.168,-3.059 -13.464,-7.775 -10.62,-4.896 -35.028,-15.3 -48.528,-20.916 -13.428,-5.616 -23.544,-9.612 -31.176,-12.384 v -9.576 L 249.01,92.808 V 78.624 L 46.404,0 C 30.96,11.448 15.48,22.896 0,34.344 Z"
       i:knockout="Off"
       id="path9"
       inkscape:connector-curvature="0" /><path
       style="clip-rule:evenodd;fill:#a1a1a1;fill-rule:evenodd"
       d="m 3.888,37.188 205.452,81.108 37.872,-37.548 c -7.668,7.128 -14.688,12.528 -21.6,16.632 -6.84,4.032 -9.721,7.632 -19.477,7.452 -9.936,-0.396 -16.164,-1.476 -39.672,-9.216 C 142.56,87.624 92.16,68.328 64.836,58.428 37.548,48.636 17.604,41.652 3.888,37.188 Z"
       i:knockout="Off"
       id="path11"
       inkscape:connector-curvature="0" /><path
       style="clip-rule:evenodd;fill:#a1a1a1;fill-rule:evenodd"
       d="m 249.336,96.336 c -9.54,9.144 -16.164,15.876 -20.16,20.196 -3.96,4.284 -5.328,3.852 -3.563,5.652 1.62,1.692 9.216,4.392 13.464,4.608 4.176,0.072 7.812,-1.224 11.34,-3.888 l -6.732,8.496 -27.972,-8.136 27.612,-26.208 c 1.979,-0.216 3.995,-0.468 6.011,-0.72 z"
       i:knockout="Off"
       id="path13"
       inkscape:connector-curvature="0" /><path
       style="clip-rule:evenodd;fill:#a1a1a1;fill-rule:evenodd"
       d="m 261.396,127.512 c -6.12,-0.54 -9.648,0.54 -11.7,2.808 -2.196,2.304 -3.097,7.993 -1.044,10.657 2.016,2.52 4.248,2.555 13.104,4.572 8.856,1.979 22.933,5.508 39.313,7.092 16.344,1.439 50.184,2.627 57.384,1.764 6.804,-0.9 -3.888,-3.527 -15.948,-7.057 -12.24,-3.707 -42.228,-10.835 -55.944,-14.184 -13.609,-3.348 -19.081,-5.184 -25.165,-5.652 z"
       i:knockout="Off"
       id="path15"
       inkscape:connector-curvature="0" /><path
       style="clip-rule:evenodd;fill:#212121;fill-rule:evenodd"
       d="M 63.036,46.044 79.344,34.704 63.036,27.972 47.124,39.672 Z"
       i:knockout="Off"
       id="path17"
       inkscape:connector-curvature="0" /><path
       style="clip-rule:evenodd;fill:#212121;fill-rule:evenodd"
       d="m 249.012,79.668 -38.987,38.628 c -0.937,10.836 -1.297,20.052 -0.685,28.333 0.468,8.172 3.061,18.863 3.888,20.555 0.757,1.512 0.505,-3.816 1.045,-10.98 0.432,-7.234 1.079,-17.676 1.8,-31.895 l 31.859,-31.86 c 0.36,-4.249 0.72,-8.497 1.08,-12.781 z"
       i:knockout="Off"
       id="path19"
       inkscape:connector-curvature="0" /><path
       style="clip-rule:evenodd;fill:#212121;fill-rule:evenodd"
       d="m 249.696,124.308 -6.372,7.812 c -0.216,7.487 0.072,12.312 0.72,14.868 0.612,2.34 2.412,2.34 3.168,0 0.648,-2.412 -0.432,-10.44 1.08,-13.824 1.332,-3.456 7.2,-4.932 7.452,-6.372 0.216,-1.512 -1.8,-2.34 -6.048,-2.484 z"
       i:knockout="Off"
       id="path21"
       inkscape:connector-curvature="0" /><path
       style="clip-rule:evenodd;fill:#212121;fill-rule:evenodd"
       d="m 269.172,103.428 c -4.14,4.788 -6.264,7.812 -6.372,9.216 -0.107,1.296 4.104,-0.864 5.688,-1.08 1.476,-0.288 2.7,-0.36 3.527,-0.36 l -0.72,-9.216 c -0.683,0.468 -1.403,0.936 -2.123,1.44 z"
       i:knockout="Off"
       id="path23"
       inkscape:connector-curvature="0" /><path
       style="clip-rule:evenodd;fill:#212121;fill-rule:evenodd"
       d="m 170.352,214.633 c 0.216,-4.609 0.54,-8.605 2.484,-13.105 1.728,-4.535 3.564,-9.143 8.856,-13.824 5.4,-4.859 22.428,-13.211 23.041,-14.508 0.252,-1.26 -14.257,3.744 -20.196,7.092 -5.94,3.313 -11.592,7.236 -14.868,12.744 -3.276,5.4 -4.86,13.861 -4.608,19.836 0.324,5.869 4.968,15.229 6.012,15.59 0.755,0.179 -0.973,-9.29 -0.721,-13.825 z"
       i:knockout="Off"
       id="path25"
       inkscape:connector-curvature="0" /><path
       style="clip-rule:evenodd;fill:#212121;fill-rule:evenodd"
       d="m 225.972,174.24 16.633,9.936 -51.337,53.461 c -0.756,-7.885 0,-14.797 2.124,-20.881 2.124,-6.119 8.028,-11.268 10.62,-15.588 2.484,-4.428 1.404,-7.848 4.248,-10.26 2.772,-2.447 10.225,-2.52 12.061,-4.248 1.655,-1.873 -2.772,-4.32 -1.765,-6.373 0.9,-2.088 3.42,-4.103 7.416,-6.047 z"
       i:knockout="Off"
       id="path27"
       inkscape:connector-curvature="0" /><path
       style="clip-rule:evenodd;fill:#212121;fill-rule:evenodd"
       d="m 44.28,14.148 c 0,2.556 3.42,4.608 7.632,4.608 4.176,0 7.596,-2.052 7.596,-4.608 0,-2.52 -3.42,-4.608 -7.596,-4.608 -4.212,0 -7.632,2.088 -7.632,4.608 z"
       i:knockout="Off"
       id="path29"
       inkscape:connector-curvature="0" /><path
       style="clip-rule:evenodd;fill:#212121;fill-rule:evenodd"
       d="m 65.232,207.035 c 5.328,-8.711 10.26,-14.471 15.084,-17.135 4.716,-2.701 7.56,0.539 13.392,0.828 5.76,0.18 20.844,-1.908 21.348,0.396 0.324,2.34 -14.436,9.07 -18.864,13.391 -4.5,4.213 -7.092,8.029 -7.92,11.736 -7.668,-3.06 -15.336,-6.118 -23.04,-9.216 z"
       i:knockout="Off"
       id="path31"
       inkscape:connector-curvature="0" /></g></g><g
   id="g1804"
   transform="translate(115.29271,-9.557945)"><g
     transform="matrix(1.0888783,0,0,1.0888783,146.73266,97.938891)"
     i:dimmedPercent="50"
     i:layer="yes"
     i:rgbTrio="#4F008000FFFF"
     id="g2214"><g
       id="g2191"><path
         inkscape:connector-curvature="0"
         style="clip-rule:evenodd;fill:#7f4008;fill-rule:evenodd"
         d="M 103.212,266.832 C 92.664,231.805 83.412,199.512 75.024,168.408 66.528,137.304 59.76,109.728 53.208,81.648 46.656,53.424 41.076,26.928 36.18,0.756 27.648,-0.252 20.376,-0.252 14.364,0.756 8.316,1.728 3.528,3.636 0,6.624 c 15.12,35.388 29.16,74.52 42.552,119.196 13.356,44.711 25.632,92.879 37.26,146.879 7.776,-1.943 15.588,-3.886 23.4,-5.867 z"
         i:knockout="Off"
         id="path2193" /><path
         inkscape:connector-curvature="0"
         style="clip-rule:evenodd;fill:#ffffc7;fill-rule:evenodd"
         d="M 83.52,249.264 C 81.792,239.401 76.824,219.348 72.36,199.801 67.716,180.287 63.648,159.084 56.412,133.272 49.068,107.172 33.588,55.224 29.268,45.468 c -4.284,-9.432 -4.212,8.352 1.584,30.852 5.904,22.68 24.12,72.648 32.976,103.249 8.64,30.348 15.228,65.771 18.648,77.688 3.24,11.628 2.664,1.511 1.044,-7.993 z"
         i:knockout="Off"
         id="path2195" /><path
         inkscape:connector-curvature="0"
         style="clip-rule:evenodd;fill:#483622;fill-rule:evenodd"
         d="m 97.884,255.672 c -2.124,-9.973 -14.652,-48.096 -17.028,-52.164 -2.376,-4.068 0.504,18.432 2.664,28.225 2.052,9.936 7.056,26.064 9.576,30.313 2.34,3.886 6.804,3.382 4.788,-6.374 z"
         i:knockout="Off"
         id="path2197" /><path
         inkscape:connector-curvature="0"
         style="clip-rule:evenodd;fill:#483622;fill-rule:evenodd"
         d="m 40.968,61.452 c 5.436,23.652 20.412,77.04 22.86,83.52 2.196,5.976 -3.6,-22.608 -9.036,-46.296 C 49.284,74.736 33.66,10.44 31.392,3.96 c -2.268,-6.012 4.032,33.66 9.576,57.492 z"
         i:knockout="Off"
         id="path2199" /><path
         inkscape:connector-curvature="0"
         style="clip-rule:evenodd;fill:#616161;fill-rule:evenodd"
         d="m 164.412,251.137 c -10.188,1.871 -18.433,3.6 -25.021,5.328 -6.588,1.691 -11.376,3.238 -14.363,4.787 -0.252,3.672 -1.009,6.553 -2.124,8.496 -1.188,1.908 -2.736,3.023 -4.788,3.203 -2.988,-3.924 -6.66,-6.443 -11.16,-7.99 -4.645,-1.549 -10.8,-2.594 -15.984,-1.045 -5.328,1.477 -11.412,6.516 -14.904,10.115 -3.528,3.529 -3.06,9.469 -5.832,11.16 -2.844,1.621 -6.624,1.045 -11.196,-1.584 -4.716,0.613 -9.324,2.916 -14.364,6.912 -5.076,3.996 -13.932,12.133 -15.444,17.029 -1.512,4.859 0.108,8.855 6.408,11.699 6.264,2.629 24.228,4.824 30.852,4.248 6.516,-0.721 4.824,-6.66 7.992,-7.957 2.988,-1.26 6.408,-1.08 10.116,0.541 1.152,4.068 4.644,6.371 10.62,6.912 6.012,0.467 19.26,-1.008 25.021,-3.744 5.58,-2.809 8.424,-7.02 8.531,-12.779 3.168,-2.305 5.832,-3.061 7.992,-2.125 2.088,0.936 3.672,3.275 4.752,7.453 l 37.261,-9.037 c 3.42,-10.729 3.96,-19.98 1.619,-28.729 -2.484,-8.637 -7.668,-16.27 -15.984,-22.893 z"
         i:knockout="Off"
         id="path2201" /><path
         inkscape:connector-curvature="0"
         style="clip-rule:evenodd;fill:#a1a1a1;fill-rule:evenodd"
         d="m 129.312,291.061 c -0.468,-2.34 -1.188,-4.645 -2.159,-6.912 -1.045,-2.377 -4.5,-5.797 -3.708,-6.949 0.647,-1.223 6.372,1.045 7.991,0 1.549,-1.08 2.124,-3.203 1.584,-6.371 3.853,-1.367 8.677,-2.736 14.904,-4.248 6.156,-1.549 13.284,-3.096 21.816,-4.789 1.836,2.809 3.132,4.754 3.744,6.373 0.611,1.477 0.611,2.412 0,2.664 l -31.429,6.912 c 0.288,3.852 -0.504,6.768 -2.664,9.035 -2.195,2.16 -5.507,3.636 -10.079,4.285 z"
         i:knockout="Off"
         id="path2203" /><path
         inkscape:connector-curvature="0"
         style="clip-rule:evenodd;fill:#a1a1a1;fill-rule:evenodd"
         d="m 63.828,291.6 c -3.06,-0.9 -13.932,1.621 -19.152,4.789 -5.328,3.131 -11.952,10.656 -12.24,13.824 -0.18,3.059 7.452,5.074 10.656,4.246 2.988,-1.008 4.176,-7.99 7.452,-10.115 3.24,-2.195 9.36,-0.539 11.7,-2.664 2.232,-2.196 4.428,-9.215 1.584,-10.08 z"
         i:knockout="Off"
         id="path2205" /><path
         inkscape:connector-curvature="0"
         style="clip-rule:evenodd;fill:#212121;fill-rule:evenodd"
         d="m 131.939,295.309 c 3.204,0.467 6.049,-0.145 8.532,-2.125 2.484,-2.016 4.608,-5.111 6.372,-9.576 l 29.269,-6.912 c 1.151,3.816 1.512,7.129 1.08,10.08 -0.433,2.881 -0.324,5.221 -3.708,7.453 -3.601,2.088 -12.204,4.139 -17.064,5.328 -4.824,1.115 -8.676,1.656 -11.7,1.619 -4.355,-0.648 -7.848,-0.828 -10.62,-0.539 -2.771,0.215 -4.68,0.971 -5.868,2.123 0.145,5.076 -1.584,8.928 -5.327,11.699 -3.853,2.773 -12.168,3.996 -17.028,4.789 -4.932,0.648 -11.232,0.145 -11.7,-0.541 -0.468,-0.826 5.364,-2.699 9.036,-4.248 3.6,-1.582 9.108,-2.158 12.78,-5.326 3.6,-3.313 6.336,-12.133 9.036,-14.365 2.699,-2.34 4.859,-2.161 6.91,0.541 z"
         i:knockout="Off"
         id="path2207" /><path
         inkscape:connector-curvature="0"
         style="clip-rule:evenodd;fill:#212121;fill-rule:evenodd"
         d="m 48.42,316.584 c 1.476,1.656 11.592,3.168 14.364,1.619 2.628,-1.691 3.024,-9.539 1.584,-11.195 -1.656,-1.656 -7.92,-0.648 -10.62,1.08 -2.7,1.584 -6.876,6.732 -5.328,8.496 z"
         i:knockout="Off"
         id="path2209" /></g></g><g
     transform="matrix(0.16459376,0,0,0.16459376,97.509587,168.49253)"
     style="fill:#000080"
     id="g1676"><path
       style="fill:#000080"
       inkscape:connector-curvature="0"
       id="path1000"
       d="m 1004.79,1369.067 c -3.558,-2.293 -7.387,-4.136 -11.397,-5.489 -37.948,69.819 -95.014,127.372 -164.506,165.914 4.176,9.227 9.728,17.768 16.464,25.33 68.482,-46.902 123.46,-110.954 159.439,-185.755" /><path
       style="fill:#000080"
       inkscape:connector-curvature="0"
       id="path1002"
       d="m 990.437,1362.312 c -16.921,-6.868 -35.077,-10.173 -53.333,-9.71 -65.036,-1.422 -118.911,50.147 -120.332,115.183 -0.042,1.899 -0.038,3.8 0.013,5.699 -0.121,11.062 0.965,22.103 3.236,32.929 70.637,-28.767 130.311,-79.226 170.416,-144.101" /><path
       style="fill:#000080"
       inkscape:connector-curvature="0"
       id="path1004"
       d="m 1007.464,1371.319 c -31.273,77.324 -79.339,146.732 -140.723,203.205 21.314,13.602 46.213,20.512 71.487,19.842 65.188,1.592 119.322,-49.963 120.914,-115.151 0.056,-2.285 0.045,-4.572 -0.032,-6.857 1.763,-40.421 -17.851,-78.793 -51.646,-101.039" /></g></g></svg>